<svg width="460" height="629" viewBox="0 0 460 629" fill="none" xmlns="http://www.w3.org/2000/svg">
<path d="M86.2667 0.768884C84.8 3.03555 21.0667 224.369 2.8 290.636C1.2 296.369 0 304.636 0 309.969C0 325.702 7.86667 337.436 24.2667 346.102C30.6667 349.436 32.5333 349.836 45.3333 349.836C58.4 349.836 59.8667 349.569 68 345.569C72.8 343.302 86.9333 333.969 99.6 324.902C147.867 290.369 189.467 267.169 223.333 255.969C245.2 248.636 256.667 246.636 276.133 246.502C301.467 246.502 320.533 253.036 338.133 267.969C364.4 290.102 372 318.636 362.133 357.569C343.867 429.436 262 513.702 185.467 539.436C159.333 548.236 139.067 546.902 127.867 535.702C115.333 523.169 113.333 509.036 121.467 491.702C129.733 474.369 144.933 457.702 172.533 435.969C183.2 427.569 208.133 410.769 218.4 405.169C221.467 403.436 224 401.302 224 400.502C224 399.569 216.4 386.636 207.2 371.702C182.267 331.436 180.8 329.169 179.6 329.169C177.467 329.169 151.467 344.102 136.4 354.102C114.933 368.102 96.8 383.036 77.3333 402.502C50 429.836 33.0667 456.902 25.8667 484.502C22.8 496.369 22.5333 499.702 23.0667 514.502C23.6 527.836 24.4 533.302 27.3333 541.836C41.4667 584.236 76.1333 615.036 121.733 625.436C137.867 629.169 168.4 629.436 186 625.969C233.067 617.036 280.667 593.702 326.667 557.169C344.667 542.902 379.067 508.502 393.333 490.502C458.133 408.769 476.533 324.769 444 259.436C422.267 216.102 377.733 181.302 327.333 168.502C272.8 154.636 213.333 163.836 144.133 196.636C134.267 201.302 126 205.169 125.733 205.169C124.133 205.169 128 190.369 150.133 113.436C163.867 65.9689 175.333 25.7022 175.6 23.8356L176.267 20.3689L133.733 10.5022C110.4 5.16888 90.4 0.502217 89.2 0.102217C88 -0.164449 86.6667 0.102217 86.2667 0.768884Z" fill="#FE5A1F"/>
</svg>
